<svg width="32" height="22" viewBox="0 0 32 22" fill="none" xmlns="http://www.w3.org/2000/svg">
<path d="M10.5995 21.8906L10.5916 21.887L10.5668 21.8723C10.4216 21.7858 10.2775 21.6969 10.1347 21.6059C8.41733 20.5003 6.81241 19.2016 5.34656 17.7313C2.75056 15.1071 0 11.213 0 6.41692C0 2.83816 2.7799 8.67204e-05 6.13518 8.67204e-05C7.06793 -0.0048627 7.9897 0.218064 8.83195 0.652288C9.6742 1.08651 10.4153 1.72086 11 2.50815C11.5849 1.7207 12.3261 1.08625 13.1686 0.652022C14.011 0.217791 14.933 -0.00504675 15.8659 8.67204e-05C19.2201 8.67204e-05 22 2.83816 22 6.41692C22 11.2143 19.2494 15.1084 16.6534 17.7301C15.1876 19.2004 13.5827 20.4991 11.8653 21.6046C11.7225 21.6961 11.5784 21.7854 11.4332 21.8723L11.4084 21.887L11.4005 21.8919L11.3971 21.8931C11.2748 21.9633 11.1384 22 11 22C10.8616 22 10.7252 21.9633 10.6029 21.8931L10.5995 21.8906Z" fill="white"/>
<path d="M23.4312 19.4626L26.9476 12.4501H24.5225V7.91262L20.8848 14.9251H23.4312V19.4626ZM23.9162 21.9376C22.798 21.9376 21.7471 21.7211 20.7636 21.2879C19.7801 20.8548 18.9245 20.267 18.197 19.5245C17.4695 18.782 16.8935 17.9089 16.4691 16.9051C16.0447 15.9014 15.8325 14.8289 15.8325 13.6876C15.8325 12.5464 16.0447 11.4739 16.4691 10.4701C16.8935 9.46637 17.4695 8.59325 18.197 7.85075C18.9245 7.10825 19.7801 6.52043 20.7636 6.08731C21.7471 5.65418 22.798 5.43762 23.9162 5.43762C25.0345 5.43762 26.0854 5.65418 27.0689 6.08731C28.0524 6.52043 28.9079 7.10825 29.6355 7.85075C30.363 8.59325 30.939 9.46637 31.3634 10.4701C31.7878 11.4739 32 12.5464 32 13.6876C32 14.8289 31.7878 15.9014 31.3634 16.9051C30.939 17.9089 30.363 18.782 29.6355 19.5245C28.9079 20.267 28.0524 20.8548 27.0689 21.2879C26.0854 21.7211 25.0345 21.9376 23.9162 21.9376Z" fill="#894189"/>
<path d="M23.8427 18.9376L27.0395 12.5626H24.8348V8.43759L21.5278 14.8126H23.8427V18.9376ZM24.2837 21.1876C23.2671 21.1876 22.3117 20.9907 21.4176 20.597C20.5235 20.2032 19.7457 19.6688 19.0843 18.9938C18.423 18.3188 17.8993 17.5251 17.5135 16.6126C17.1277 15.7001 16.9348 14.7251 16.9348 13.6876C16.9348 12.6501 17.1277 11.6751 17.5135 10.7626C17.8993 9.85009 18.423 9.05634 19.0843 8.38134C19.7457 7.70634 20.5235 7.17197 21.4176 6.77822C22.3117 6.38447 23.2671 6.18759 24.2837 6.18759C25.3002 6.18759 26.2556 6.38447 27.1497 6.77822C28.0438 7.17197 28.8216 7.70634 29.483 8.38134C30.1443 9.05634 30.668 9.85009 31.0538 10.7626C31.4396 11.6751 31.6325 12.6501 31.6325 13.6876C31.6325 14.7251 31.4396 15.7001 31.0538 16.6126C30.668 17.5251 30.1443 18.3188 29.483 18.9938C28.8216 19.6688 28.0438 20.2032 27.1497 20.597C26.2556 20.9907 25.3002 21.1876 24.2837 21.1876Z" fill="white"/>
</svg>
